<?xml version="1.0" encoding="utf-8"?>
<!-- Generator: Adobe Illustrator 25.4.1, SVG Export Plug-In . SVG Version: 6.00 Build 0)  -->
<svg version="1.1" id="Layer_1" xmlns="http://www.w3.org/2000/svg" xmlns:xlink="http://www.w3.org/1999/xlink" x="0px" y="0px"
	 viewBox="0 0 350 314" style="enable-background:new 0 0 350 314;" xml:space="preserve">
<style type="text/css">
	.st0{opacity:0.05;fill:#3995DB;}
	.st1{fill:none;stroke:#3995DB;stroke-width:0.75;stroke-miterlimit:10;}
</style>
<path class="st0" d="M321.3,311.14H28.7c-14.5,0-26.26-11.76-26.26-26.26V28.45c0-14.5,11.76-26.26,26.26-26.26h292.6
	c14.5,0,26.26,11.76,26.26,26.26v256.44C347.56,299.39,335.8,311.14,321.3,311.14z"/>
<path class="st1" d="M321.3,311.14H28.7c-14.5,0-26.26-11.76-26.26-26.26V28.45c0-14.5,11.76-26.26,26.26-26.26h292.6
	c14.5,0,26.26,11.76,26.26,26.26v256.44C347.56,299.39,335.8,311.14,321.3,311.14z"/>
</svg>
