<?xml version="1.0" encoding="utf-8"?>
<!-- Generator: Adobe Illustrator 25.4.1, SVG Export Plug-In . SVG Version: 6.00 Build 0)  -->
<svg version="1.1" xmlns="http://www.w3.org/2000/svg" xmlns:xlink="http://www.w3.org/1999/xlink" x="0px" y="0px"
	 viewBox="0 0 350 314" style="enable-background:new 0 0 350 314;" xml:space="preserve">
<style type="text/css">
	.st0{display:none;}
	.st1{display:inline;opacity:0.05;fill:#3995DB;}
	.st2{display:inline;fill:none;stroke:#3995DB;stroke-width:0.75;stroke-miterlimit:10;}
	.st3{fill:none;stroke:#B2EBFF;stroke-width:2;stroke-miterlimit:10;}
	.st4{fill:#00B3F4;stroke:#B2EBFF;stroke-width:2;stroke-miterlimit:10;}
	.st5{fill:#FFFFFF;}
	.st6{fill:#00ABFF;}
	.st7{fill:#0097E5;}
	.st8{fill:#FFDA14;}
	.st9{fill:#FFEA86;}
	.st10{fill:#101010;}
	.st11{font-family:'Poppins-Regular';}
	.st12{font-size:9.0146px;}
	.st13{fill:#E6E6E6;}
	.st14{fill:#A3A3A3;}
	.st15{fill:#222C39;}
	.st16{fill:#FF8500;}
	.st17{fill:#00AC7F;}
	.st18{fill:none;stroke:#FF8500;stroke-width:8;stroke-miterlimit:10;}
	.st19{fill:#333E4F;}
</style>
<g id="Layer_1" class="st0">
	<path class="st1" d="M321.3,311.14H28.7c-14.5,0-26.26-11.76-26.26-26.26V28.45c0-14.5,11.76-26.26,26.26-26.26h292.6
		c14.5,0,26.26,11.76,26.26,26.26v256.44C347.56,299.39,335.8,311.14,321.3,311.14z"/>
	<path class="st2" d="M321.3,311.14H28.7c-14.5,0-26.26-11.76-26.26-26.26V28.45c0-14.5,11.76-26.26,26.26-26.26h292.6
		c14.5,0,26.26,11.76,26.26,26.26v256.44C347.56,299.39,335.8,311.14,321.3,311.14z"/>
</g>
<g id="Layer_2">
	<g>
		<g>
			<path class="st3" d="M147.85,111.73V69.36c0-1.94,1.57-3.51,3.51-3.51h25.53c1.94,0,3.51,1.57,3.51,3.51v42.37"/>
			<circle class="st4" cx="147.96" cy="86.24" r="3.77"/>
			<path class="st5" d="M149.8,86.21c0,1.02-0.83,1.85-1.85,1.85c-1.02,0-1.85-0.83-1.85-1.85s0.83-1.85,1.85-1.85
				C148.97,84.36,149.8,85.18,149.8,86.21z"/>
		</g>
		<g>
			<path class="st3" d="M82.37,106.5V154c0,1.78,1.44,3.22,3.22,3.22h13.82"/>
			<circle class="st4" cx="81.82" cy="133.93" r="3.77"/>
			<path class="st5" d="M83.66,133.9c0,1.02-0.83,1.85-1.85,1.85c-1.02,0-1.85-0.83-1.85-1.85s0.83-1.85,1.85-1.85
				C82.83,132.04,83.66,132.87,83.66,133.9z"/>
		</g>
		<g>
			<path class="st3" d="M103.48,226.95H83.04c-2.99,0-5.41-2.42-5.41-5.41v-19.15h32.09v18.32
				C109.73,224.15,106.93,226.95,103.48,226.95z"/>
			<path class="st4" d="M96.05,226.48c0,2.08-1.69,3.77-3.77,3.77c-2.08,0-3.77-1.69-3.77-3.77c0-2.08,1.69-3.77,3.77-3.77
				C94.36,222.71,96.05,224.4,96.05,226.48z"/>
			<path class="st5" d="M94.12,226.45c0,1.02-0.83,1.85-1.85,1.85s-1.85-0.83-1.85-1.85s0.83-1.85,1.85-1.85
				S94.12,225.42,94.12,226.45z"/>
		</g>
		<g>
			<path class="st3" d="M207.06,237.87l-0.75,5.75c0,3.45-2.8,6.25-6.25,6.25h-20.43c-2.99,0-5.41-2.42-5.41-5.41v-19.15h7.85"/>
			<path class="st4" d="M188.71,250.3c0,2.08-1.69,3.77-3.77,3.77c-2.08,0-3.77-1.69-3.77-3.77c0-2.08,1.69-3.77,3.77-3.77
				C187.03,246.54,188.71,248.22,188.71,250.3z"/>
			<path class="st5" d="M186.78,250.27c0,1.02-0.83,1.85-1.85,1.85s-1.85-0.83-1.85-1.85c0-1.02,0.83-1.85,1.85-1.85
				S186.78,249.25,186.78,250.27z"/>
		</g>
		<ellipse class="st6" cx="159.68" cy="237.35" rx="54.8" ry="3.6"/>
		<g>
			<path class="st5" d="M256.62,69.49c0,1.88-0.36,3.67-1.01,5.3h-24.64c-0.65-1.63-1.01-3.42-1.01-5.3c0-1.45,0.21-2.85,0.61-4.16
				c1.7-5.63,6.75-9.71,12.72-9.71c5.57,0,10.33,3.54,12.33,8.59C256.26,65.83,256.62,67.61,256.62,69.49z"/>
			<path class="st5" d="M269.17,74.78h-22.03c0.61-4.54,3.75-8.24,7.89-9.49c0.99-0.31,2.04-0.47,3.13-0.47
				C263.77,64.82,268.42,69.15,269.17,74.78z"/>
			<path class="st5" d="M238.01,74.78h-16.4c0.01-4.71,3.68-8.52,8.2-8.52c0.23,0,0.46,0.01,0.68,0.03
				C234.69,66.66,238,70.32,238.01,74.78z"/>
			<polygon class="st7" points="244.72,83.77 244.72,69.98 236.55,69.98 236.55,83.77 233.78,83.77 237.21,87.69 240.64,91.61 
				244.06,87.69 247.49,83.77 			"/>
		</g>
		<g>
			<g>
				<path class="st8" d="M194.13,86.3h-25.63c-2.46,0-4.46-2-4.46-4.46V56.22c0-2.46,2-4.46,4.46-4.46h25.63
					c2.46,0,4.46,2,4.46,4.46v25.63C198.59,84.31,196.6,86.3,194.13,86.3z"/>
				<path class="st9" d="M197.62,57.07c0,0-0.07,25.34-0.07,24.38l-1.79-22.52c0-2.46-2-4.46-4.46-4.46l-21.71-1.87
					c-0.96,0,23.58,0.01,23.58,0.01C195.62,52.61,197.62,54.61,197.62,57.07z"/>
			</g>
			<text transform="matrix(1 0 0 1 172.5923 72.2944)" class="st10 st11 st12">PHP</text>
		</g>
		<g>
			<path class="st3" d="M272.34,146.75v37.97c0,3.48-2.83,6.31-6.31,6.31h-17.41"/>
			<path class="st4" d="M275.88,168.82c0,2.08-1.69,3.77-3.77,3.77c-2.08,0-3.77-1.69-3.77-3.77c0-2.08,1.69-3.77,3.77-3.77
				C274.19,165.05,275.88,166.74,275.88,168.82z"/>
			<path class="st5" d="M273.95,168.79c0,1.02-0.83,1.85-1.85,1.85c-1.02,0-1.85-0.83-1.85-1.85s0.83-1.85,1.85-1.85
				C273.12,166.94,273.95,167.77,273.95,168.79z"/>
		</g>
		<path class="st5" d="M121.47,84.23l-7.7-3.59V70.51c0-2.11-1.71-3.82-3.82-3.82H82.59c-2.11,0-3.82,1.71-3.82,3.82v18.08
			c0,2.11,1.71,3.82,3.82,3.82h27.36c2.11,0,3.82-1.71,3.82-3.82v-2.62L121.47,84.23z"/>
		<g>
			<rect x="161.25" y="198.65" class="st13" width="28.03" height="35.04"/>
			<path class="st14" d="M260.22,104.81v106.62c0,1.88-1.52,3.4-3.39,3.4H93.74c-1.87,0-3.39-1.52-3.39-3.4V104.81
				c0-1.88,1.52-3.4,3.39-3.4h163.09C258.7,101.42,260.22,102.94,260.22,104.81z"/>
			<path class="st10" d="M260.22,104.81v85.74H90.34v-85.74c0-1.88,1.52-3.4,3.39-3.4h163.09
				C258.7,101.42,260.22,102.94,260.22,104.81z"/>
			<path class="st14" d="M204.21,236.4h-57.12c0.03-2.19,1.82-3.95,4.01-3.95h49.1C202.4,232.45,204.18,234.21,204.21,236.4z"/>
			<path class="st15" d="M253.44,109.49v73.2c0,1.01-0.82,1.82-1.82,1.82H98.17c-1.01,0-1.82-0.82-1.82-1.82v-73.2
				c0-1.01,0.81-1.82,1.82-1.82h153.45C252.63,107.67,253.44,108.49,253.44,109.49z"/>
			<path class="st13" d="M179.2,201.6c0,2.08-1.69,3.78-3.78,3.78c-2.08,0-3.78-1.69-3.78-3.78c0-2.08,1.69-3.78,3.78-3.78
				C177.51,197.82,179.2,199.51,179.2,201.6z"/>
			<path class="st5" d="M253.44,109.49v9.26H96.36v-9.26c0-1.01,0.81-1.82,1.82-1.82h153.45
				C252.63,107.67,253.44,108.49,253.44,109.49z"/>
			<path class="st16" d="M235.99,113.49c0,0.79-0.64,1.43-1.43,1.43c-0.79,0-1.43-0.64-1.43-1.43c0-0.79,0.64-1.43,1.43-1.43
				C235.35,112.06,235.99,112.7,235.99,113.49z"/>
			<circle class="st7" cx="240.84" cy="113.49" r="1.43"/>
			<circle class="st6" cx="247.12" cy="113.49" r="1.43"/>
			<g>
				<rect x="105.32" y="124.54" class="st7" width="11.3" height="3.19"/>
				<rect x="120.44" y="124.73" class="st7" width="27.08" height="3"/>
				<rect x="105.32" y="132.71" class="st8" width="11.3" height="3.19"/>
				<rect x="120.44" y="132.9" class="st17" width="19.82" height="3"/>
				<rect x="144.26" y="132.9" class="st7" width="26.72" height="3"/>
				<rect x="120.44" y="140.13" class="st7" width="19.82" height="3"/>
				<rect x="144.26" y="140.13" class="st6" width="26.72" height="3"/>
				<rect x="120.44" y="147.36" class="st7" width="19.82" height="3"/>
				<rect x="144.26" y="147.36" class="st7" width="26.72" height="3"/>
				<rect x="105.32" y="154.4" class="st8" width="11.3" height="3.19"/>
				<rect x="120.44" y="154.59" class="st17" width="19.82" height="3"/>
				<rect x="120.44" y="161.82" class="st7" width="19.82" height="3"/>
				<rect x="144.26" y="161.82" class="st7" width="26.72" height="3"/>
				<rect x="120.44" y="169.05" class="st7" width="19.82" height="3"/>
				<rect x="144.26" y="169.05" class="st7" width="26.72" height="3"/>
				<rect x="120.44" y="176.28" class="st7" width="19.82" height="3"/>
				<rect x="144.26" y="176.28" class="st7" width="26.72" height="3"/>
			</g>
			<g>
				<rect x="179.21" y="124.54" class="st7" width="11.3" height="3.19"/>
				<rect x="194.34" y="124.73" class="st7" width="27.08" height="3"/>
				<rect x="179.21" y="132.71" class="st8" width="11.3" height="3.19"/>
				<rect x="194.34" y="132.9" class="st17" width="19.82" height="3"/>
				<rect x="218.16" y="132.9" class="st7" width="26.72" height="3"/>
				<rect x="194.34" y="140.13" class="st7" width="19.82" height="3"/>
				<rect x="218.16" y="140.13" class="st6" width="26.72" height="3"/>
				<rect x="194.34" y="147.36" class="st7" width="19.82" height="3"/>
				<rect x="218.16" y="147.36" class="st7" width="26.72" height="3"/>
				<rect x="179.21" y="154.4" class="st8" width="11.3" height="3.19"/>
				<rect x="194.34" y="154.59" class="st17" width="19.82" height="3"/>
				<rect x="218.16" y="154.59" class="st7" width="26.72" height="3"/>
				<rect x="218.16" y="161.82" class="st7" width="26.72" height="3"/>
				<rect x="194.34" y="169.05" class="st7" width="19.82" height="3"/>
				<rect x="218.16" y="169.05" class="st7" width="26.72" height="3"/>
				<rect x="194.34" y="176.28" class="st7" width="19.82" height="3"/>
				<rect x="218.16" y="176.28" class="st7" width="26.72" height="3"/>
			</g>
			<path class="st18" d="M220.23,193.64"/>
			<polygon class="st10" points="189.28,222.41 161.29,216.97 161.29,214.78 189.28,214.78 			"/>
		</g>
		<g>
			<g>
				<path class="st7" d="M97.16,111.82H71.53c-2.46,0-4.46-2-4.46-4.46V81.74c0-2.46,2-4.46,4.46-4.46h25.63
					c2.46,0,4.46,2,4.46,4.46v25.63C101.62,109.83,99.62,111.82,97.16,111.82z"/>
				<text transform="matrix(1 0 0 1 72.1128 97.812)" class="st5 st11 st12">JAVA</text>
			</g>
			<path class="st6" d="M100.68,82.81c0,0-0.07,25.34-0.07,24.38l-1.79-22.52c0-2.46-2-4.46-4.46-4.46l-21.71-1.87
				c-0.96,0,23.58,0.01,23.58,0.01C98.68,78.35,100.68,80.35,100.68,82.81z"/>
		</g>
		<g>
			<g>
				<path class="st7" d="M278.47,149.62h-25.63c-2.46,0-4.46-2-4.46-4.46v-25.63c0-2.46,2-4.46,4.46-4.46h25.63
					c2.46,0,4.46,2,4.46,4.46v25.63C282.93,147.62,280.93,149.62,278.47,149.62z"/>
				<text transform="matrix(1 0 0 1 254.2168 135.6074)" class="st5 st11 st12">HTML</text>
			</g>
			<path class="st6" d="M281.81,120.57c0,0-0.07,25.34-0.07,24.38l-1.79-22.52c0-2.46-2-4.46-4.46-4.46l-21.71-1.87
				c-0.96,0,23.58,0.01,23.58,0.01C279.81,116.11,281.81,118.11,281.81,120.57z"/>
		</g>
		<g>
			<g>
				<path class="st7" d="M247.56,242.69h-25.63c-2.46,0-4.46-2-4.46-4.46V212.6c0-2.46,2-4.46,4.46-4.46h25.63
					c2.46,0,4.46,2,4.46,4.46v25.63C252.02,240.69,250.03,242.69,247.56,242.69z"/>
				<text transform="matrix(1 0 0 1 226.0215 228.6777)" class="st5 st11 st12">C++</text>
			</g>
			<path class="st6" d="M250.39,214.38c0,0-0.07,25.34-0.07,24.38l-1.79-22.52c0-2.46-2-4.46-4.46-4.46l-21.71-1.87
				c-0.96,0,23.58,0.01,23.58,0.01C248.39,209.92,250.39,211.93,250.39,214.38z"/>
		</g>
		<g>
			<g>
				<rect x="195.8" y="237.96" class="st8" width="35.05" height="24.28"/>
				<polygon class="st10" points="213.33,250.1 195.8,237.96 230.85,237.96 				"/>
				<polygon class="st19" points="213.33,225.75 195.8,237.89 230.85,237.89 				"/>
			</g>
			<path class="st5" d="M203.29,229.44v13.72l10.04,6.95l9.99-6.79v-14.03C223.32,229.28,203.41,229.55,203.29,229.44z"/>
			<rect x="207.03" y="233.05" class="st13" width="12.54" height="1.5"/>
			<rect x="207.03" y="236.95" class="st13" width="12.54" height="1.5"/>
			<rect x="207.03" y="240.84" class="st13" width="12.54" height="1.5"/>
		</g>
		<g>
			<polygon class="st9" points="118.86,238.12 114.68,238.12 126.77,162.07 130.95,162.07 			"/>
			<polygon class="st8" points="117.76,238.12 113.58,238.12 125.67,162.07 129.85,162.07 			"/>
			<polygon class="st9" points="134.68,238.12 130.51,238.12 142.6,162.07 146.77,162.07 			"/>
			<polygon class="st8" points="133.58,238.12 129.41,238.12 141.5,162.07 145.67,162.07 			"/>
			<rect x="117.48" y="223.79" class="st8" width="17" height="2.88"/>
			<rect x="119.76" y="207.79" class="st8" width="17" height="2.88"/>
			<rect x="122.05" y="191.79" class="st8" width="17" height="2.88"/>
			<rect x="124.34" y="175.78" class="st8" width="17" height="2.88"/>
		</g>
		<g>
			<g>
				<path class="st7" d="M97.78,208.93H72.15c-2.46,0-4.46-2-4.46-4.46v-25.63c0-2.46,2-4.46,4.46-4.46h25.63
					c2.46,0,4.46,2,4.46,4.46v25.63C102.24,206.94,100.24,208.93,97.78,208.93z"/>
				<text transform="matrix(1 0 0 1 78.6016 194.9238)" class="st5 st11 st12">JS</text>
			</g>
			<path class="st6" d="M101,180.24c0,0-0.07,25.34-0.07,24.38l-1.79-22.52c0-2.46-2-4.46-4.46-4.46l-21.71-1.87
				c-0.96,0,23.58,0.01,23.58,0.01C99,175.78,101,177.79,101,180.24z"/>
		</g>
	</g>
</g>
</svg>
